<svg width="1440" height="277" viewBox="0 0 1440 277" fill="none" xmlns="http://www.w3.org/2000/svg">
<path d="M670.482 161.706C663.729 159.172 645.723 145.232 642.722 143.965C639.721 142.698 638.22 147.133 638.22 147.133C638.22 147.133 630.717 144.599 627.716 140.164C624.715 135.73 613.461 135.73 609.71 138.264C605.958 140.798 580.449 157.271 575.947 157.905C571.445 158.538 570.695 156.004 566.944 154.737C563.193 153.47 560.192 159.173 553.44 162.34C548.403 164.703 536.688 163.894 531.059 163.33C529.141 163.138 527.93 162.974 527.93 162.974L528.679 273.851H720V165.507C713.247 163.606 677.234 164.24 670.482 161.706Z" fill="#B4D7F5"/>
<path d="M692.355 201.046V199.178H694.482V196.687H685.972C685.972 196.687 686.595 189.423 681.407 189.423C681.407 186.724 681.407 185.895 681.407 185.895H678.5H675.595C675.595 185.895 675.595 186.725 675.595 189.423C670.405 189.423 671.028 196.687 671.028 196.687H662.518V199.178H664.646V201.046H659.509V203.122H663.089V278.777H693.912V203.122H697.492V201.046H692.355Z" fill="#043658"/>
<path d="M656.795 203.433V202.188H655.004V197.829V188.178H652.981V194.509H648.777V197.829H646.287V193.004H633.211V197.829H630.72V194.509H626.517V188.178H624.493V197.829V202.188H622.703V203.433H624.493V206.08H622.703V207.325H624.493V209.972H622.703V211.217H624.493V213.863H622.703V215.109H624.493V217.755H622.703V219.001H624.493V221.647H622.703V222.893H624.493V225.538H622.703V226.784H624.493V229.43H622.703V230.676H624.493V233.323H622.703V234.568H624.493V237.213H622.703V238.459H624.493V241.106H622.703V242.351H624.493V244.998H622.703V246.243H624.493V248.889H622.703V250.134H624.493V252.781H622.703V254.026H624.493V256.673H622.703V257.918H624.493V260.564H622.703V261.809H624.493V264.456H622.703V265.701H624.493V268.348H622.703V269.593H624.493V272.239H622.703V273.484H624.493V276.131H622.703V277.377H624.493V278.778H655.004V277.377H656.795V276.131H655.004V273.484H656.795V272.239H655.004V269.593H656.795V268.348H655.004V265.701H656.795V264.456H655.004V261.809H656.795V260.564H655.004V257.918H656.795V256.673H655.004V254.026H656.795V252.781H655.004V250.134H656.795V248.889H655.004V246.243H656.795V244.998H655.004V242.351H656.795V241.106H655.004V238.459H656.795V237.213H655.004V234.568H656.795V233.323H655.004V230.676H656.795V229.43H655.004V226.784H656.795V225.538H655.004V222.893H656.795V221.647H655.004V219.001H656.795V217.755H655.004V215.109H656.795V213.863H655.004V211.217H656.795V209.972H655.004V207.325H656.795V206.08H655.004V203.433H656.795Z" fill="#043658"/>
<path d="M618.059 209.971V207.688H615.88V198.971H609.341V196.688H602.907V193.263V187.451H600.417V193.263H596.161V196.688H589.416V198.971H582.878V207.688H580.698V209.971H582.878V211.632H580.698V213.915H582.878V215.575H580.698V217.859H582.878V219.519H580.698V221.802H582.878V223.463H580.698V225.746H582.878V227.407H580.698V229.689H582.878V231.351H580.698V233.633H582.878V235.449H580.698V237.732H582.878V239.548H580.698V241.832H582.878V243.648H580.698V245.931H582.878V247.747H580.698V250.03H582.878V251.846H580.698V254.13H582.878V255.946H580.698V258.229H582.878V260.045H580.698V262.328H582.878V264.144H580.698V266.428H582.878V268.244H580.698V270.526H582.878V272.343H580.698V274.625H582.878V276.494H580.698V278.778H582.878H615.88H618.059V276.494H615.88V274.625H618.059V272.343H615.88V270.526H618.059V268.244H615.88V266.428H618.059V264.144H615.88V262.328H618.059V260.045H615.88V258.229H618.059V255.946H615.88V254.13H618.059V251.846H615.88V250.03H618.059V247.747H615.88V245.931H618.059V243.648H615.88V241.832H618.059V239.548H615.88V237.732H618.059V235.449H615.88V233.633H618.059V231.351H615.88V229.689H618.059V227.407H615.88V225.746H618.059V223.463H615.88V221.802H618.059V219.519H615.88V217.859H618.059V215.575H615.88V213.915H618.059V211.632H615.88V209.971H618.059Z" fill="#043658"/>
<path d="M671.433 265.537C659.63 265.537 650.026 255.934 650.026 244.131C650.026 232.327 659.63 222.724 671.433 222.724C683.236 222.724 692.84 232.327 692.84 244.131C692.84 255.934 683.236 265.537 671.433 265.537ZM671.433 226.542C661.735 226.542 653.845 234.432 653.845 244.131C653.845 253.829 661.735 261.719 671.433 261.719C681.131 261.719 689.021 253.829 689.021 244.131C689.021 234.432 681.131 226.542 671.433 226.542Z" fill="#007EB9"/>
<path d="M672.387 224.309H670.478V264.278H672.387V224.309Z" fill="#007EB9"/>
<path d="M664.687 225.466L662.923 226.196L678.219 263.124L679.983 262.393L664.687 225.466Z" fill="#007EB9"/>
<path d="M657.968 229.487L656.618 230.837L684.881 259.1L686.231 257.75L657.968 229.487Z" fill="#007EB9"/>
<path d="M653.347 235.748L652.617 237.512L689.545 252.808L690.276 251.044L653.347 235.748Z" fill="#007EB9"/>
<path d="M691.417 243.338H651.448V245.247H691.417V243.338Z" fill="#007EB9"/>
<path d="M689.502 235.786L652.578 251.087L653.309 252.85L690.233 237.55L689.502 235.786Z" fill="#007EB9"/>
<path d="M684.874 229.46L656.611 257.723L657.961 259.073L686.224 230.81L684.874 229.46Z" fill="#007EB9"/>
<path d="M678.188 225.487L662.888 262.411L664.651 263.141L679.951 226.218L678.188 225.487Z" fill="#007EB9"/>
<path d="M672.387 224.309H670.478V264.278H672.387V224.309Z" fill="#007EB9"/>
<path d="M671.451 269.07C672.691 269.07 673.697 268.065 673.697 266.824C673.697 265.584 672.691 264.578 671.451 264.578C670.21 264.578 669.204 265.584 669.204 266.824C669.204 268.065 670.21 269.07 671.451 269.07Z" fill="#007EB9"/>
<path d="M659.452 263.554C659.991 262.436 661.333 261.966 662.451 262.505C663.568 263.042 664.038 264.385 663.5 265.503C662.961 266.621 661.619 267.091 660.501 266.552C659.384 266.014 658.914 264.671 659.452 263.554Z" fill="#007EB9"/>
<path d="M652.085 256.375C653.055 255.601 654.468 255.761 655.242 256.73C656.016 257.7 655.856 259.113 654.887 259.887C653.917 260.661 652.503 260.501 651.73 259.532C650.957 258.562 651.115 257.149 652.085 256.375Z" fill="#007EB9"/>
<path d="M648.562 246.712C649.772 246.435 650.975 247.192 651.252 248.402C651.528 249.612 650.771 250.816 649.561 251.092C648.351 251.368 647.147 250.611 646.871 249.402C646.596 248.193 647.352 246.988 648.562 246.712Z" fill="#007EB9"/>
<path d="M649.581 236.477C650.79 236.753 651.547 237.957 651.27 239.166C650.994 240.376 649.79 241.132 648.58 240.856C647.371 240.58 646.615 239.376 646.89 238.166C647.167 236.957 648.371 236.2 649.581 236.477Z" fill="#007EB9"/>
<path d="M654.941 227.697C655.91 228.471 656.07 229.884 655.296 230.854C654.522 231.824 653.109 231.983 652.139 231.21C651.169 230.436 651.01 229.022 651.784 228.052C652.557 227.083 653.97 226.923 654.941 227.697Z" fill="#007EB9"/>
<path d="M663.577 222.112C664.115 223.229 663.646 224.572 662.528 225.11C661.41 225.649 660.067 225.179 659.53 224.061C658.991 222.943 659.461 221.6 660.579 221.063C661.696 220.524 663.039 220.994 663.577 222.112Z" fill="#007EB9"/>
<path d="M673.783 220.828C673.783 222.069 672.777 223.074 671.537 223.074C670.296 223.074 669.291 222.068 669.291 220.828C669.291 219.587 670.297 218.582 671.537 218.582C672.777 218.581 673.783 219.587 673.783 220.828Z" fill="#007EB9"/>
<path d="M683.535 224.098C682.996 225.216 681.654 225.686 680.537 225.147C679.419 224.608 678.949 223.266 679.488 222.149C680.026 221.031 681.368 220.561 682.486 221.1C683.604 221.637 684.073 222.979 683.535 224.098Z" fill="#007EB9"/>
<path d="M690.902 231.276C689.932 232.05 688.519 231.89 687.745 230.921C686.971 229.951 687.131 228.537 688.1 227.764C689.07 226.99 690.484 227.149 691.258 228.119C692.031 229.089 691.872 230.502 690.902 231.276Z" fill="#007EB9"/>
<path d="M694.426 240.94C693.216 241.216 692.012 240.459 691.736 239.25C691.459 238.041 692.217 236.837 693.426 236.561C694.636 236.284 695.84 237.042 696.116 238.251C696.391 239.459 695.635 240.664 694.426 240.94Z" fill="#007EB9"/>
<path d="M693.407 251.175C692.197 250.899 691.441 249.695 691.716 248.486C691.991 247.276 693.196 246.52 694.406 246.796C695.616 247.072 696.372 248.276 696.097 249.486C695.82 250.695 694.616 251.452 693.407 251.175Z" fill="#007EB9"/>
<path d="M688.047 259.956C687.077 259.182 686.917 257.769 687.691 256.799C688.465 255.829 689.878 255.669 690.848 256.443C691.818 257.217 691.978 258.631 691.204 259.6C690.43 260.57 689.016 260.729 688.047 259.956Z" fill="#007EB9"/>
<path d="M679.411 265.54C678.873 264.423 679.343 263.08 680.46 262.542C681.578 262.004 682.921 262.473 683.458 263.591C683.996 264.709 683.527 266.051 682.409 266.589C681.292 267.128 679.949 266.658 679.411 265.54Z" fill="#007EB9"/>
<path d="M675.686 263.877H667.513V274.434H675.686V263.877Z" fill="#007EB9"/>
<path d="M506.163 97.3704H483.988V205.577H506.163V97.3704Z" fill="#C9E3FB"/>
<path d="M201.557 130.548H172.297V270.85H201.557V130.548Z" fill="#B4D7F5"/>
<path d="M249.575 100.036H220.314V240.338H249.575V100.036Z" fill="#B4D7F5"/>
<path d="M332.605 124.046H303.345V264.348H332.605V124.046Z" fill="#B4D7F5"/>
<path d="M411.635 116.542H376.372V273.6H411.635V116.542Z" fill="#B4D7F5"/>
<path d="M120.027 136.55H90.7662V276.852H120.027V136.55Z" fill="#B4D7F5"/>
<path d="M475.104 61.3247V57.9728L465.06 46.8541V41.5157H459.844V46.8541L449.8 57.9728V61.3247H439.145V276.352L485.758 276.699V61.3247H475.104Z" fill="#73AFE3"/>
<mask id="mask0_2881_3402" style="mask-type:luminance" maskUnits="userSpaceOnUse" x="342" y="59" width="46" height="219">
<path d="M381.23 59.855L342.281 77.2025V277.185H387.122L381.23 59.855Z" fill="white"/>
</mask>
<g mask="url(#mask0_2881_3402)">
<path d="M381.23 59.855L342.281 77.2025V277.185H387.122L381.23 59.855Z" fill="#73AFE3"/>
</g>
<path d="M295.634 6.10352e-05V48.6005H300.521C300.521 48.6005 300.145 63.6431 317.438 63.2582V278.103H257.665V20.8288C257.665 20.8288 265.183 23.9143 269.319 16.2005V0.386008C269.319 0.386008 295.258 0.385017 295.634 6.10352e-05Z" fill="#73AFE3"/>
<path d="M229.319 83.697H184.219V277.102H229.319V83.697Z" fill="#73AFE3"/>
<path opacity="0.42" d="M184.232 83.7088C183.632 82.5627 194.755 106.372 194.755 106.372H218.599L229.312 83.7029L184.232 83.7088Z" fill="#73AFE3"/>
<path d="M157.707 110.665V104.663H155.541L150.039 97.3271L149.372 91.3246L148.705 96.8266H144.369H143.536H139.201L138.534 91.3246L137.867 97.3271L132.365 104.663H130.197V110.665H124.695V135.175V274.602H143.536L144.369 275.476H163.209V135.175V110.665H157.707Z" fill="#73AFE3"/>
<path d="M102.02 122.296H61.255V277.103H102.02V122.296Z" fill="#73AFE3"/>
<path d="M50.8347 94.5344V89.5329H43.832V88.3653L10.8199 84.0309V94.5344H6.81848V278.936H54.169V94.5344H50.8347Z" fill="#043658"/>
<path d="M55.9027 70.7993C54.454 70.2527 52.8348 71.3547 52.3843 71.6946L52.3353 69.0244L52.2853 71.77C52.2765 71.7769 52.252 71.7965 52.252 71.7965L52.2667 72.776L51.8455 95.7019H52.8251L52.5087 78.4553C53.1718 78.0155 55.8048 76.4659 57.1536 78.6346C58.7042 81.1275 60.2548 80.7004 60.2548 80.7004V74.6459C58.2536 75.5716 57.6042 71.4399 55.9027 70.7993Z" fill="#043658"/>
<path d="M106.056 164.894V161.56H83.2739V164.894H75.1771V278.686H112.92V164.894H106.056Z" fill="#043658"/>
<path d="M152.773 154.682H141.285V148.93H126.811V154.682H115.072L119.168 158.777V277.353H148.678V158.777L152.773 154.682Z" fill="#043658"/>
<path d="M267.331 278.603H225.066C226.977 273.533 229.469 264.905 228.901 254.094C228.5 246.464 226.705 240.246 225.066 235.921C225.066 201.297 225.066 166.673 225.066 132.049H267.331V236.087C265.993 240.726 264.753 246.654 264.413 253.594C263.904 264.026 265.629 272.673 267.331 278.603Z" fill="#043658"/>
<path d="M423.389 135.425H374.621V278.937H423.389V135.425Z" fill="#043658"/>
<path d="M547.019 128.372H509.644V276.603H547.019V128.372Z" fill="#C9E3FB"/>
<path d="M535.689 119.878H520.974V130.016H535.689V119.878Z" fill="#C9E3FB"/>
<path d="M569.194 161.187L560.058 156.058H535.564L526.428 161.187H528.244V277.016H567.082V161.187H569.194Z" fill="#043658"/>
<mask id="mask1_2881_3402" style="mask-type:luminance" maskUnits="userSpaceOnUse" x="301" y="139" width="58" height="141">
<path d="M306.794 139.754H301.594V279.152H358.134V186.22L306.794 139.754Z" fill="white"/>
</mask>
<g mask="url(#mask1_2881_3402)">
<path d="M306.794 139.754H301.594V279.152H358.134V186.22L306.794 139.754Z" fill="#043658"/>
</g>
<path d="M476.065 159.596V156.013L475.585 155.802L463.808 150.637V147.054H455.942H454.002H446.137V150.637L434.129 155.904L433.879 156.013V159.596H429.283V277.853H454.002H455.942H480.662V159.596H476.065Z" fill="#043658"/>
<path d="M514.762 175.674C514.628 169.25 508.931 164.061 501.936 164.061C494.941 164.061 489.245 169.25 489.11 175.674H485.572V277.188H518.3V175.674H514.762Z" fill="#043658"/>
<path d="M618.22 251.87V240.552C619.381 241.154 620.049 241.538 620.081 241.556C620.242 241.65 620.419 241.695 620.592 241.695C620.942 241.695 621.283 241.514 621.472 241.191C621.755 240.706 621.591 240.083 621.106 239.799C620.411 239.393 603.893 229.865 587.527 229.865C571.166 229.865 556.602 238.088 555.991 238.437C555.663 238.625 555.496 238.968 555.495 239.321H553.275C547.214 239.321 542.229 243.93 541.634 249.834H545.304V251.869H541.574H538.183V278.322H624.664V251.869L618.22 251.87ZM563.745 239.322H558.689C559.856 238.739 561.586 237.924 563.745 237.045V239.322ZM568.005 239.322H564.762V236.638C565.769 236.244 566.853 235.844 568.005 235.45V239.322ZM572.584 239.322H569.024V235.11C570.157 234.74 571.346 234.381 572.584 234.045V239.322ZM577.692 239.322H573.601V233.776C574.92 233.439 576.287 233.132 577.692 232.868V239.322ZM582.441 239.322H578.709V232.685C579.93 232.476 581.177 232.306 582.441 232.174V239.322ZM588.037 239.322H583.458V232.078C584.8 231.966 586.159 231.901 587.528 231.901C587.698 231.901 587.867 231.908 588.037 231.911V239.322ZM593.632 239.322H589.053V231.93C590.582 231.988 592.113 232.13 593.632 232.337V239.322ZM598.38 239.322H594.649V232.487C595.908 232.684 597.154 232.924 598.38 233.197V239.322ZM603.489 239.322H599.398V233.43C600.797 233.765 602.164 234.141 603.489 234.543V239.322ZM608.067 239.322H604.506V234.86C605.742 235.254 606.931 235.666 608.067 236.086V239.322ZM609.084 239.322V236.469C611.676 237.462 613.946 238.468 615.739 239.322H609.084Z" fill="#013355"/>
<path d="M130.698 230.085H109.357V235.087H102.521V277.936H137.534V235.087H130.698V230.085Z" fill="#013355"/>
<path d="M63.6724 216.247V213.721H61.5145H57.9314V208.577H48.7463V213.721H45.1642H43.0063V216.247H45.1642V218.268H43.0063V220.793H45.1642V222.814H43.0063V225.34H45.1642V227.361H43.0063V229.887H45.1642V231.908H43.0063V234.434H45.1642V236.454H43.0063V238.98H45.1642V241.001H43.0063V243.527H45.1642V245.548H43.0063V248.074H45.1642V250.094H43.0063V252.62H45.1642V254.641H43.0063V257.167H45.1642V259.188H43.0063V261.714H45.1642V263.735H43.0063V266.26H45.1642V268.281H43.0063V270.807H45.1642V272.506H61.5145V270.807H63.6724V268.281H61.5145V266.26H63.6724V263.735H61.5145V261.714H63.6724V259.188H61.5145V257.167H63.6724V254.641H61.5145V252.62H63.6724V250.094H61.5145V248.074H63.6724V245.548H61.5145V243.527H63.6724V241.001H61.5145V238.98H63.6724V236.454H61.5145V234.434H63.6724V231.908H61.5145V229.887H63.6724V227.361H61.5145V225.34H63.6724V222.814H61.5145V220.793H63.6724V218.268H61.5145V216.247H63.6724Z" fill="#013355"/>
<path d="M17.8098 197.297V193.071H10.1822V197.297H0V273.063H27.993V197.297H17.8098Z" fill="#013355"/>
<path d="M213.812 190.82V189.153H210.977V183.984H207.977V177.316H166.294V183.984H163.293V189.153H160.125V190.82H163.293V194.489H160.125V196.156H163.293V199.824H160.125V201.491H163.293V205.159H160.125V206.827H163.293V210.494H160.125V212.161H163.293V215.83H160.125V217.497H163.293V221.165H160.125V222.832H163.293V226.5H160.125V228.168H163.293V231.835H160.125V233.503H163.293V237.171H160.125V238.838H163.293V242.506H160.125V244.173H163.293V247.842H160.125V249.509H163.293V253.176H160.125V254.844H163.293V258.512H160.125V260.179H163.293V263.847H160.125V265.514H163.293V279.686H210.977V265.514H213.812V263.847H210.977V260.179H213.812V258.512H210.977V254.844H213.812V253.176H210.977V249.509H213.812V247.842H210.977V244.173H213.812V242.506H210.977V238.838H213.812V237.171H210.977V233.503H213.812V231.835H210.977V228.168H213.812V226.5H210.977V222.832H213.812V221.165H210.977V217.497H213.812V215.83H210.977V212.161H213.812V210.494H210.977V206.827H213.812V205.159H210.977V201.491H213.812V199.824H210.977V196.156H213.812V194.489H210.977V190.82H213.812Z" fill="#043658"/>
<path d="M769.518 161.706C776.271 159.172 794.277 145.232 797.278 143.965C800.28 142.698 801.78 147.133 801.78 147.133C801.78 147.133 809.283 144.599 812.284 140.164C815.285 135.73 826.539 135.73 830.29 138.264C834.042 140.798 859.551 157.271 864.053 157.905C868.555 158.538 869.305 156.004 873.056 154.737C876.807 153.47 879.809 159.173 886.56 162.34C891.597 164.703 903.312 163.894 908.941 163.33C910.859 163.138 912.07 162.974 912.07 162.974L911.321 273.851H720V165.507C726.753 163.606 762.766 164.24 769.518 161.706Z" fill="#B4D7F5"/>
<path d="M747.645 201.046V199.178H745.518V196.687H754.028C754.028 196.687 753.405 189.423 758.594 189.423C758.594 186.724 758.594 185.895 758.594 185.895H761.5H764.405C764.405 185.895 764.405 186.725 764.405 189.423C769.595 189.423 768.972 196.687 768.972 196.687H777.482V199.178H775.354V201.046H780.491V203.122H776.911V278.777H746.088V203.122H742.508V201.046H747.645Z" fill="#043658"/>
<path d="M783.205 203.433V202.188H784.996V197.829V188.178H787.019V194.509H791.223V197.829H793.714V193.004H806.789V197.829H809.28V194.509H813.483V188.178H815.507V197.829V202.188H817.297V203.433H815.507V206.08H817.297V207.325H815.507V209.972H817.297V211.217H815.507V213.863H817.297V215.109H815.507V217.755H817.297V219.001H815.507V221.647H817.297V222.893H815.507V225.538H817.297V226.784H815.507V229.43H817.297V230.676H815.507V233.323H817.297V234.568H815.507V237.213H817.297V238.459H815.507V241.106H817.297V242.351H815.507V244.998H817.297V246.243H815.507V248.889H817.297V250.134H815.507V252.781H817.297V254.026H815.507V256.673H817.297V257.918H815.507V260.564H817.297V261.809H815.507V264.456H817.297V265.701H815.507V268.348H817.297V269.593H815.507V272.239H817.297V273.484H815.507V276.131H817.297V277.377H815.507V278.778H784.996V277.377H783.205V276.131H784.996V273.484H783.205V272.239H784.996V269.593H783.205V268.348H784.996V265.701H783.205V264.456H784.996V261.809H783.205V260.564H784.996V257.918H783.205V256.673H784.996V254.026H783.205V252.781H784.996V250.134H783.205V248.889H784.996V246.243H783.205V244.998H784.996V242.351H783.205V241.106H784.996V238.459H783.205V237.213H784.996V234.568H783.205V233.323H784.996V230.676H783.205V229.43H784.996V226.784H783.205V225.538H784.996V222.893H783.205V221.647H784.996V219.001H783.205V217.755H784.996V215.109H783.205V213.863H784.996V211.217H783.205V209.972H784.996V207.325H783.205V206.08H784.996V203.433H783.205Z" fill="#043658"/>
<path d="M821.941 209.971V207.688H824.12V198.971H830.659V196.688H837.093V193.263V187.451H839.583V193.263H843.839V196.688H850.584V198.971H857.123V207.688H859.302V209.971H857.123V211.632H859.302V213.915H857.123V215.575H859.302V217.859H857.123V219.519H859.302V221.802H857.123V223.463H859.302V225.746H857.123V227.407H859.302V229.689H857.123V231.351H859.302V233.633H857.123V235.449H859.302V237.732H857.123V239.548H859.302V241.832H857.123V243.648H859.302V245.931H857.123V247.747H859.302V250.03H857.123V251.846H859.302V254.13H857.123V255.946H859.302V258.229H857.123V260.045H859.302V262.328H857.123V264.144H859.302V266.428H857.123V268.244H859.302V270.526H857.123V272.343H859.302V274.625H857.123V276.494H859.302V278.778H857.123H824.12H821.941V276.494H824.12V274.625H821.941V272.343H824.12V270.526H821.941V268.244H824.12V266.428H821.941V264.144H824.12V262.328H821.941V260.045H824.12V258.229H821.941V255.946H824.12V254.13H821.941V251.846H824.12V250.03H821.941V247.747H824.12V245.931H821.941V243.648H824.12V241.832H821.941V239.548H824.12V237.732H821.941V235.449H824.12V233.633H821.941V231.351H824.12V229.689H821.941V227.407H824.12V225.746H821.941V223.463H824.12V221.802H821.941V219.519H824.12V217.859H821.941V215.575H824.12V213.915H821.941V211.632H824.12V209.971H821.941Z" fill="#043658"/>
<path d="M768.567 265.537C780.37 265.537 789.974 255.934 789.974 244.131C789.974 232.327 780.37 222.724 768.567 222.724C756.764 222.724 747.16 232.327 747.16 244.131C747.16 255.934 756.764 265.537 768.567 265.537ZM768.567 226.542C778.265 226.542 786.156 234.432 786.156 244.131C786.156 253.829 778.265 261.719 768.567 261.719C758.869 261.719 750.979 253.829 750.979 244.131C750.979 234.432 758.869 226.542 768.567 226.542Z" fill="#007EB9"/>
<path d="M767.613 224.309H769.522V264.278H767.613V224.309Z" fill="#007EB9"/>
<path d="M775.313 225.466L777.077 226.196L761.781 263.124L760.017 262.393L775.313 225.466Z" fill="#007EB9"/>
<path d="M782.032 229.487L783.382 230.837L755.119 259.1L753.769 257.75L782.032 229.487Z" fill="#007EB9"/>
<path d="M786.653 235.748L787.383 237.512L750.455 252.808L749.725 251.044L786.653 235.748Z" fill="#007EB9"/>
<path d="M748.583 243.338H788.552V245.247H748.583V243.338Z" fill="#007EB9"/>
<path d="M750.498 235.786L787.422 251.087L786.691 252.85L749.767 237.55L750.498 235.786Z" fill="#007EB9"/>
<path d="M755.126 229.46L783.389 257.723L782.039 259.073L753.776 230.81L755.126 229.46Z" fill="#007EB9"/>
<path d="M761.812 225.487L777.112 262.411L775.349 263.141L760.049 226.218L761.812 225.487Z" fill="#007EB9"/>
<path d="M767.613 224.309H769.522V264.278H767.613V224.309Z" fill="#007EB9"/>
<path d="M768.55 269.07C767.309 269.07 766.304 268.065 766.304 266.824C766.304 265.584 767.309 264.578 768.55 264.578C769.79 264.578 770.796 265.584 770.796 266.824C770.796 268.065 769.79 269.07 768.55 269.07Z" fill="#007EB9"/>
<path d="M780.548 263.554C780.009 262.436 778.667 261.966 777.549 262.505C776.432 263.042 775.962 264.385 776.5 265.503C777.039 266.621 778.381 267.091 779.499 266.552C780.616 266.014 781.086 264.671 780.548 263.554Z" fill="#007EB9"/>
<path d="M787.915 256.375C786.945 255.601 785.531 255.761 784.758 256.73C783.984 257.7 784.144 259.113 785.113 259.887C786.083 260.661 787.496 260.501 788.27 259.532C789.043 258.562 788.884 257.149 787.915 256.375Z" fill="#007EB9"/>
<path d="M791.438 246.712C790.228 246.435 789.025 247.192 788.748 248.402C788.472 249.612 789.229 250.816 790.439 251.092C791.649 251.368 792.853 250.611 793.129 249.402C793.404 248.193 792.648 246.988 791.438 246.712Z" fill="#007EB9"/>
<path d="M790.419 236.477C789.21 236.753 788.453 237.957 788.73 239.166C789.006 240.376 790.21 241.132 791.419 240.856C792.629 240.58 793.385 239.376 793.11 238.166C792.833 236.957 791.629 236.2 790.419 236.477Z" fill="#007EB9"/>
<path d="M785.06 227.697C784.09 228.471 783.93 229.884 784.704 230.854C785.478 231.824 786.891 231.983 787.861 231.21C788.831 230.436 788.99 229.022 788.217 228.052C787.443 227.083 786.03 226.923 785.06 227.697Z" fill="#007EB9"/>
<path d="M776.423 222.112C775.885 223.229 776.354 224.572 777.472 225.11C778.59 225.649 779.933 225.179 780.47 224.061C781.009 222.943 780.539 221.6 779.421 221.063C778.304 220.524 776.961 220.994 776.423 222.112Z" fill="#007EB9"/>
<path d="M766.217 220.828C766.217 222.069 767.223 223.074 768.463 223.074C769.704 223.074 770.709 222.068 770.709 220.828C770.709 219.587 769.703 218.582 768.463 218.582C767.223 218.581 766.217 219.587 766.217 220.828Z" fill="#007EB9"/>
<path d="M756.465 224.098C757.004 225.216 758.346 225.686 759.463 225.147C760.581 224.608 761.051 223.266 760.512 222.149C759.974 221.031 758.632 220.561 757.514 221.1C756.396 221.637 755.927 222.979 756.465 224.098Z" fill="#007EB9"/>
<path d="M749.098 231.276C750.068 232.05 751.481 231.89 752.255 230.921C753.029 229.951 752.869 228.537 751.899 227.764C750.93 226.99 749.516 227.149 748.742 228.119C747.969 229.089 748.128 230.502 749.098 231.276Z" fill="#007EB9"/>
<path d="M745.574 240.94C746.784 241.216 747.988 240.459 748.264 239.25C748.54 238.041 747.783 236.837 746.574 236.561C745.364 236.284 744.16 237.042 743.884 238.251C743.609 239.459 744.365 240.664 745.574 240.94Z" fill="#007EB9"/>
<path d="M746.593 251.175C747.803 250.899 748.559 249.695 748.284 248.486C748.009 247.276 746.804 246.52 745.594 246.796C744.384 247.072 743.628 248.276 743.903 249.486C744.18 250.695 745.384 251.452 746.593 251.175Z" fill="#007EB9"/>
<path d="M751.953 259.956C752.923 259.182 753.083 257.769 752.309 256.799C751.535 255.829 750.122 255.669 749.152 256.443C748.182 257.217 748.022 258.631 748.796 259.6C749.57 260.57 750.984 260.729 751.953 259.956Z" fill="#007EB9"/>
<path d="M760.589 265.54C761.127 264.423 760.657 263.08 759.54 262.542C758.422 262.004 757.079 262.473 756.542 263.591C756.004 264.709 756.473 266.051 757.591 266.589C758.708 267.128 760.051 266.658 760.589 265.54Z" fill="#007EB9"/>
<path d="M764.314 263.877H772.487V274.434H764.314V263.877Z" fill="#007EB9"/>
<path d="M933.837 97.3704H956.012V205.577H933.837V97.3704Z" fill="#C9E3FB"/>
<path d="M1238.44 130.548H1267.7V270.85H1238.44V130.548Z" fill="#B4D7F5"/>
<path d="M1190.43 100.036H1219.69V240.338H1190.43V100.036Z" fill="#B4D7F5"/>
<path d="M1107.39 124.046H1136.66V264.348H1107.39V124.046Z" fill="#B4D7F5"/>
<path d="M1028.37 116.542H1063.63V273.6H1028.37V116.542Z" fill="#B4D7F5"/>
<path d="M1319.97 136.55H1349.23V276.852H1319.97V136.55Z" fill="#B4D7F5"/>
<path d="M964.896 61.3247V57.9728L974.941 46.8541V41.5157H980.157V46.8541L990.201 57.9728V61.3247H1000.85V276.352L954.242 276.699V61.3247H964.896Z" fill="#73AFE3"/>
<mask id="mask2_2881_3402" style="mask-type:luminance" maskUnits="userSpaceOnUse" x="1052" y="59" width="46" height="219">
<path d="M1058.77 59.855L1097.72 77.2025V277.185H1052.88L1058.77 59.855Z" fill="white"/>
</mask>
<g mask="url(#mask2_2881_3402)">
<path d="M1058.77 59.855L1097.72 77.2025V277.185H1052.88L1058.77 59.855Z" fill="#73AFE3"/>
</g>
<path d="M1144.37 6.10352e-05V48.6005H1139.48C1139.48 48.6005 1139.86 63.6431 1122.56 63.2582V278.103H1182.34V20.8288C1182.34 20.8288 1174.82 23.9143 1170.68 16.2005V0.386008C1170.68 0.386008 1144.74 0.385017 1144.37 6.10352e-05Z" fill="#73AFE3"/>
<path d="M1210.68 83.697H1255.78V277.102H1210.68V83.697Z" fill="#73AFE3"/>
<path opacity="0.42" d="M1255.77 83.7088C1256.37 82.5627 1245.24 106.372 1245.24 106.372H1221.4L1210.69 83.7029L1255.77 83.7088Z" fill="#73AFE3"/>
<path d="M1282.29 110.665V104.663H1284.46L1289.96 97.3271L1290.63 91.3246L1291.3 96.8266H1295.63H1296.46H1300.8L1301.47 91.3246L1302.13 97.3271L1307.64 104.663H1309.8V110.665H1315.3V135.175V274.602H1296.46L1295.63 275.476H1276.79V135.175V110.665H1282.29Z" fill="#73AFE3"/>
<path d="M1337.98 122.296H1378.74V277.103H1337.98V122.296Z" fill="#73AFE3"/>
<path d="M1389.17 94.5344V89.5329H1396.17V88.3653L1429.18 84.0309V94.5344H1433.18V278.936H1385.83V94.5344H1389.17Z" fill="#043658"/>
<path d="M1384.1 70.7993C1385.55 70.2527 1387.17 71.3547 1387.62 71.6946L1387.66 69.0244L1387.71 71.77C1387.72 71.7769 1387.75 71.7965 1387.75 71.7965L1387.73 72.776L1388.15 95.7019H1387.18L1387.49 78.4553C1386.83 78.0155 1384.2 76.4659 1382.85 78.6346C1381.3 81.1275 1379.75 80.7004 1379.75 80.7004V74.6459C1381.75 75.5716 1382.4 71.4399 1384.1 70.7993Z" fill="#043658"/>
<path d="M1333.94 164.894V161.56H1356.73V164.894H1364.82V278.686H1327.08V164.894H1333.94Z" fill="#043658"/>
<path d="M1287.23 154.682H1298.72V148.93H1313.19V154.682H1324.93L1320.83 158.777V277.353H1291.32V158.777L1287.23 154.682Z" fill="#043658"/>
<path d="M1172.67 278.603H1214.93C1213.02 273.533 1210.53 264.905 1211.1 254.094C1211.5 246.464 1213.29 240.246 1214.93 235.921C1214.93 201.297 1214.93 166.673 1214.93 132.049H1172.67V236.087C1174.01 240.726 1175.25 246.654 1175.59 253.594C1176.1 264.026 1174.37 272.673 1172.67 278.603Z" fill="#043658"/>
<path d="M1016.61 135.425H1065.38V278.937H1016.61V135.425Z" fill="#043658"/>
<path d="M892.981 128.372H930.356V276.603H892.981V128.372Z" fill="#C9E3FB"/>
<path d="M904.311 119.878H919.026V130.016H904.311V119.878Z" fill="#C9E3FB"/>
<path d="M870.806 161.187L879.942 156.058H904.436L913.572 161.187H911.756V277.016H872.919V161.187H870.806Z" fill="#043658"/>
<mask id="mask3_2881_3402" style="mask-type:luminance" maskUnits="userSpaceOnUse" x="1081" y="139" width="58" height="141">
<path d="M1133.21 139.754H1138.41V279.152H1081.87V186.22L1133.21 139.754Z" fill="white"/>
</mask>
<g mask="url(#mask3_2881_3402)">
<path d="M1133.21 139.754H1138.41V279.152H1081.87V186.22L1133.21 139.754Z" fill="#043658"/>
</g>
<path d="M963.936 159.596V156.013L964.415 155.802L976.192 150.637V147.054H984.058H985.998H993.863V150.637L1005.87 155.904L1006.12 156.013V159.596H1010.72V277.853H985.998H984.058H959.339V159.596H963.936Z" fill="#043658"/>
<path d="M925.238 175.674C925.372 169.25 931.069 164.061 938.064 164.061C945.059 164.061 950.755 169.25 950.89 175.674H954.428V277.188H921.7V175.674H925.238Z" fill="#043658"/>
<path d="M821.78 251.87V240.552C820.619 241.154 819.951 241.538 819.919 241.556C819.758 241.65 819.581 241.695 819.408 241.695C819.058 241.695 818.717 241.514 818.528 241.191C818.245 240.706 818.409 240.083 818.893 239.799C819.589 239.393 836.107 229.865 852.473 229.865C868.834 229.865 883.397 238.088 884.009 238.437C884.337 238.625 884.504 238.968 884.505 239.321H886.725C892.786 239.321 897.771 243.93 898.366 249.834H894.695V251.869H898.425H901.817V278.322H815.336V251.869L821.78 251.87ZM876.255 239.322H881.311C880.143 238.739 878.414 237.924 876.255 237.045V239.322ZM871.995 239.322H875.238V236.638C874.231 236.244 873.147 235.844 871.995 235.45V239.322ZM867.415 239.322H870.976V235.11C869.843 234.74 868.654 234.381 867.415 234.045V239.322ZM862.308 239.322H866.399V233.776C865.08 233.439 863.713 233.132 862.308 232.868V239.322ZM857.559 239.322H861.29V232.685C860.07 232.476 858.823 232.306 857.559 232.174V239.322ZM851.963 239.322H856.542V232.078C855.2 231.966 853.841 231.901 852.472 231.901C852.302 231.901 852.133 231.908 851.963 231.911V239.322ZM846.368 239.322H850.947V231.93C849.418 231.988 847.887 232.13 846.368 232.337V239.322ZM841.619 239.322H845.351V232.487C844.092 232.684 842.846 232.924 841.619 233.197V239.322ZM836.511 239.322H840.602V233.43C839.203 233.765 837.836 234.141 836.511 234.543V239.322ZM831.933 239.322H835.494V234.86C834.258 235.254 833.069 235.666 831.933 236.086V239.322ZM830.916 239.322V236.469C828.324 237.462 826.054 238.468 824.261 239.322H830.916Z" fill="#013355"/>
<path d="M1309.3 230.085H1330.64V235.087H1337.48V277.936H1302.47V235.087H1309.3V230.085Z" fill="#013355"/>
<path d="M1376.33 216.247V213.721H1378.49H1382.07V208.577H1391.25V213.721H1394.84H1396.99V216.247H1394.84V218.268H1396.99V220.793H1394.84V222.814H1396.99V225.34H1394.84V227.361H1396.99V229.887H1394.84V231.908H1396.99V234.434H1394.84V236.454H1396.99V238.98H1394.84V241.001H1396.99V243.527H1394.84V245.548H1396.99V248.074H1394.84V250.094H1396.99V252.62H1394.84V254.641H1396.99V257.167H1394.84V259.188H1396.99V261.714H1394.84V263.735H1396.99V266.26H1394.84V268.281H1396.99V270.807H1394.84V272.506H1378.49V270.807H1376.33V268.281H1378.49V266.26H1376.33V263.735H1378.49V261.714H1376.33V259.188H1378.49V257.167H1376.33V254.641H1378.49V252.62H1376.33V250.094H1378.49V248.074H1376.33V245.548H1378.49V243.527H1376.33V241.001H1378.49V238.98H1376.33V236.454H1378.49V234.434H1376.33V231.908H1378.49V229.887H1376.33V227.361H1378.49V225.34H1376.33V222.814H1378.49V220.793H1376.33V218.268H1378.49V216.247H1376.33Z" fill="#013355"/>
<path d="M1422.19 197.297V193.071H1429.82V197.297H1440V273.063H1412.01V197.297H1422.19Z" fill="#013355"/>
<path d="M1226.19 190.82V189.153H1229.02V183.984H1232.02V177.316H1273.71V183.984H1276.71V189.153H1279.88V190.82H1276.71V194.489H1279.88V196.156H1276.71V199.824H1279.88V201.491H1276.71V205.159H1279.88V206.827H1276.71V210.494H1279.88V212.161H1276.71V215.83H1279.88V217.497H1276.71V221.165H1279.88V222.832H1276.71V226.5H1279.88V228.168H1276.71V231.835H1279.88V233.503H1276.71V237.171H1279.88V238.838H1276.71V242.506H1279.88V244.173H1276.71V247.842H1279.88V249.509H1276.71V253.176H1279.88V254.844H1276.71V258.512H1279.88V260.179H1276.71V263.847H1279.88V265.514H1276.71V279.686H1229.02V265.514H1226.19V263.847H1229.02V260.179H1226.19V258.512H1229.02V254.844H1226.19V253.176H1229.02V249.509H1226.19V247.842H1229.02V244.173H1226.19V242.506H1229.02V238.838H1226.19V237.171H1229.02V233.503H1226.19V231.835H1229.02V228.168H1226.19V226.5H1229.02V222.832H1226.19V221.165H1229.02V217.497H1226.19V215.83H1229.02V212.161H1226.19V210.494H1229.02V206.827H1226.19V205.159H1229.02V201.491H1226.19V199.824H1229.02V196.156H1226.19V194.489H1229.02V190.82H1226.19Z" fill="#043658"/>
</svg>
